<svg width="14" height="14" viewBox="0 0 14 14" fill="none" xmlns="http://www.w3.org/2000/svg">
<g opacity="0.8">
<path fill-rule="evenodd" clip-rule="evenodd" d="M3.53501 2.83503C4.45398 1.91606 5.70038 1.39978 7.00001 1.39978C8.29963 1.39978 9.54603 1.91606 10.465 2.83503C11.384 3.75401 11.9003 5.0004 11.9003 6.30003C11.9003 7.59966 11.384 8.84606 10.465 9.76503L7.00001 13.23L3.53501 9.76503C3.07995 9.31002 2.71897 8.76982 2.47269 8.17529C2.22641 7.58077 2.09965 6.94355 2.09965 6.30003C2.09965 5.65651 2.22641 5.01929 2.47269 4.42477C2.71897 3.83024 3.07995 3.29004 3.53501 2.83503ZM7.00001 7.70003C7.37131 7.70003 7.7274 7.55253 7.98996 7.28998C8.25251 7.02743 8.40001 6.67133 8.40001 6.30003C8.40001 5.92873 8.25251 5.57263 7.98996 5.31008C7.7274 5.04753 7.37131 4.90003 7.00001 4.90003C6.6287 4.90003 6.27261 5.04753 6.01006 5.31008C5.74751 5.57263 5.60001 5.92873 5.60001 6.30003C5.60001 6.67133 5.74751 7.02743 6.01006 7.28998C6.27261 7.55253 6.6287 7.70003 7.00001 7.70003Z" fill="white"/>
</g>
</svg>
