<svg width="70" height="14" viewBox="0 0 70 14" fill="none" xmlns="http://www.w3.org/2000/svg">
<path d="M6.33418 2.04895C6.54418 1.40425 7.45628 1.40425 7.66558 2.04895L8.41458 4.35335C8.46034 4.4937 8.5493 4.61598 8.66873 4.70273C8.78817 4.78948 8.93197 4.83625 9.07958 4.83635H11.503C12.1813 4.83635 12.4627 5.70435 11.9146 6.10335L9.95458 7.52715C9.83491 7.61398 9.74579 7.73646 9.70002 7.87705C9.65424 8.01764 9.65416 8.16912 9.69978 8.30975L10.4488 10.6142C10.6588 11.2589 9.92028 11.7958 9.37078 11.3968L7.41078 9.97295C7.29123 9.88616 7.14728 9.83941 6.99953 9.83941C6.85179 9.83941 6.70784 9.88616 6.58828 9.97295L4.62828 11.3968C4.07948 11.7958 3.34168 11.2589 3.55098 10.6142L4.29998 8.30975C4.34561 8.16912 4.34552 8.01764 4.29975 7.87705C4.25398 7.73646 4.16486 7.61398 4.04518 7.52715L2.08588 6.10405C1.53778 5.70505 1.81988 4.83705 2.49748 4.83705H4.92018C5.06792 4.83709 5.21188 4.79039 5.33145 4.70363C5.45103 4.61688 5.54009 4.49451 5.58588 4.35405L6.33488 2.04965L6.33418 2.04895Z" fill="#F0CC84"/>
<path d="M20.3342 2.04895C20.5442 1.40425 21.4563 1.40425 21.6656 2.04895L22.4146 4.35335C22.4603 4.4937 22.5493 4.61598 22.6687 4.70273C22.7882 4.78948 22.932 4.83625 23.0796 4.83635H25.503C26.1813 4.83635 26.4627 5.70435 25.9146 6.10335L23.9546 7.52715C23.8349 7.61398 23.7458 7.73646 23.7 7.87705C23.6542 8.01764 23.6542 8.16912 23.6998 8.30975L24.4488 10.6142C24.6588 11.2589 23.9203 11.7958 23.3708 11.3968L21.4108 9.97295C21.2912 9.88616 21.1473 9.83941 20.9995 9.83941C20.8518 9.83941 20.7078 9.88616 20.5883 9.97295L18.6283 11.3968C18.0795 11.7958 17.3417 11.2589 17.551 10.6142L18.3 8.30975C18.3456 8.16912 18.3455 8.01764 18.2998 7.87705C18.254 7.73646 18.1649 7.61398 18.0452 7.52715L16.0859 6.10405C15.5378 5.70505 15.8199 4.83705 16.4975 4.83705H18.9202C19.0679 4.83709 19.2119 4.79039 19.3315 4.70363C19.451 4.61688 19.5401 4.49451 19.5859 4.35405L20.3349 2.04965L20.3342 2.04895Z" fill="#F0CC84"/>
<path d="M34.3342 2.04895C34.5442 1.40425 35.4563 1.40425 35.6656 2.04895L36.4146 4.35335C36.4603 4.4937 36.5493 4.61598 36.6687 4.70273C36.7882 4.78948 36.932 4.83625 37.0796 4.83635H39.503C40.1813 4.83635 40.4627 5.70435 39.9146 6.10335L37.9546 7.52715C37.8349 7.61398 37.7458 7.73646 37.7 7.87705C37.6542 8.01764 37.6542 8.16912 37.6998 8.30975L38.4488 10.6142C38.6588 11.2589 37.9203 11.7958 37.3708 11.3968L35.4108 9.97295C35.2912 9.88616 35.1473 9.83941 34.9995 9.83941C34.8518 9.83941 34.7078 9.88616 34.5883 9.97295L32.6283 11.3968C32.0795 11.7958 31.3417 11.2589 31.551 10.6142L32.3 8.30975C32.3456 8.16912 32.3455 8.01764 32.2998 7.87705C32.254 7.73646 32.1649 7.61398 32.0452 7.52715L30.0859 6.10405C29.5378 5.70505 29.8199 4.83705 30.4975 4.83705H32.9202C33.0679 4.83709 33.2119 4.79039 33.3315 4.70363C33.451 4.61688 33.5401 4.49451 33.5859 4.35405L34.3349 2.04965L34.3342 2.04895Z" fill="#F0CC84"/>
<path d="M48.3342 2.04895C48.5442 1.40425 49.4563 1.40425 49.6656 2.04895L50.4146 4.35335C50.4603 4.4937 50.5493 4.61598 50.6687 4.70273C50.7882 4.78948 50.932 4.83625 51.0796 4.83635H53.503C54.1813 4.83635 54.4627 5.70435 53.9146 6.10335L51.9546 7.52715C51.8349 7.61398 51.7458 7.73646 51.7 7.87705C51.6542 8.01764 51.6542 8.16912 51.6998 8.30975L52.4488 10.6142C52.6588 11.2589 51.9203 11.7958 51.3708 11.3968L49.4108 9.97295C49.2912 9.88616 49.1473 9.83941 48.9995 9.83941C48.8518 9.83941 48.7078 9.88616 48.5883 9.97295L46.6283 11.3968C46.0795 11.7958 45.3417 11.2589 45.551 10.6142L46.3 8.30975C46.3456 8.16912 46.3455 8.01764 46.2998 7.87705C46.254 7.73646 46.1649 7.61398 46.0452 7.52715L44.0859 6.10405C43.5378 5.70505 43.8199 4.83705 44.4975 4.83705H46.9202C47.0679 4.83709 47.2119 4.79039 47.3315 4.70363C47.451 4.61688 47.5401 4.49451 47.5859 4.35405L48.3349 2.04965L48.3342 2.04895Z" fill="#F0CC84"/>
<path d="M62.3342 2.04895C62.5442 1.40425 63.4563 1.40425 63.6656 2.04895L64.4146 4.35335C64.4603 4.4937 64.5493 4.61598 64.6687 4.70273C64.7882 4.78948 64.932 4.83625 65.0796 4.83635H67.503C68.1813 4.83635 68.4627 5.70435 67.9146 6.10335L65.9546 7.52715C65.8349 7.61398 65.7458 7.73646 65.7 7.87705C65.6542 8.01764 65.6542 8.16912 65.6998 8.30975L66.4488 10.6142C66.6588 11.2589 65.9203 11.7958 65.3708 11.3968L63.4108 9.97295C63.2912 9.88616 63.1473 9.83941 62.9995 9.83941C62.8518 9.83941 62.7078 9.88616 62.5883 9.97295L60.6283 11.3968C60.0795 11.7958 59.3417 11.2589 59.551 10.6142L60.3 8.30975C60.3456 8.16912 60.3455 8.01764 60.2998 7.87705C60.254 7.73646 60.1649 7.61398 60.0452 7.52715L58.0859 6.10405C57.5378 5.70505 57.8199 4.83705 58.4975 4.83705H60.9202C61.0679 4.83709 61.2119 4.79039 61.3315 4.70363C61.451 4.61688 61.5401 4.49451 61.5859 4.35405L62.3349 2.04965L62.3342 2.04895Z" fill="#F0CC84"/>
</svg>
