<svg width="40" height="40" viewBox="0 0 40 40" fill="none" xmlns="http://www.w3.org/2000/svg">
<rect width="40" height="40" fill="white"/>
<path d="M20.3883 24.192C21.0643 24.192 21.6603 24.078 22.1763 23.85C22.6963 23.618 23.1023 23.284 23.3943 22.848C23.6903 22.408 23.8383 21.878 23.8383 21.258C23.8383 20.67 23.7063 20.192 23.4423 19.824C23.1823 19.452 22.8243 19.14 22.3683 18.888C21.9123 18.632 21.3923 18.388 20.8083 18.156C20.5123 18.04 20.2383 17.926 19.9863 17.814C19.7383 17.698 19.5403 17.556 19.3923 17.388C19.2443 17.216 19.1703 16.99 19.1703 16.71C19.1703 16.35 19.3043 16.034 19.5723 15.762C19.8403 15.486 20.2203 15.348 20.7123 15.348C21.1323 15.348 21.5223 15.44 21.8823 15.624C22.2423 15.804 22.5343 16.012 22.7583 16.248L23.4423 15.054C23.2543 14.858 23.0143 14.674 22.7223 14.502C22.4343 14.33 22.1143 14.19 21.7623 14.082C21.4143 13.974 21.0543 13.92 20.6823 13.92C20.0783 13.92 19.5483 14.052 19.0923 14.316C18.6363 14.58 18.2803 14.926 18.0243 15.354C17.7723 15.782 17.6463 16.244 17.6463 16.74C17.6463 17.196 17.7503 17.584 17.9583 17.904C18.1663 18.22 18.4303 18.486 18.7503 18.702C19.0743 18.914 19.4063 19.092 19.7463 19.236C20.2223 19.432 20.6403 19.618 21.0003 19.794C21.3603 19.966 21.6403 20.168 21.8403 20.4C22.0403 20.628 22.1403 20.926 22.1403 21.294C22.1403 21.77 21.9763 22.13 21.6483 22.374C21.3203 22.614 20.9143 22.734 20.4303 22.734C19.9743 22.734 19.5683 22.648 19.2123 22.476C18.8563 22.3 18.5523 22.1 18.3003 21.876C18.0483 21.652 17.8483 21.464 17.7003 21.312L16.8723 22.584C16.9763 22.704 17.1283 22.854 17.3283 23.034C17.5283 23.21 17.7743 23.388 18.0663 23.568C18.3623 23.744 18.7023 23.892 19.0863 24.012C19.4743 24.132 19.9083 24.192 20.3883 24.192Z" fill="#121212"/>
</svg>
