<svg width="40" height="40" viewBox="0 0 40 40" fill="none" xmlns="http://www.w3.org/2000/svg">
<rect width="40" height="40" fill="#F8F8F8"/>
<path opacity="0.7" d="M11.2872 24H13.2372L16.0212 20.028L18.8052 24H20.7552L16.9932 18.66L20.1552 14.1H18.2712L16.0212 17.352L13.7712 14.1H11.8872L15.0552 18.66L11.2872 24ZM24.7574 24.192C25.4334 24.192 26.0294 24.078 26.5454 23.85C27.0654 23.618 27.4714 23.284 27.7634 22.848C28.0594 22.408 28.2074 21.878 28.2074 21.258C28.2074 20.67 28.0754 20.192 27.8114 19.824C27.5514 19.452 27.1934 19.14 26.7374 18.888C26.2814 18.632 25.7614 18.388 25.1774 18.156C24.8814 18.04 24.6074 17.926 24.3554 17.814C24.1074 17.698 23.9094 17.556 23.7614 17.388C23.6134 17.216 23.5394 16.99 23.5394 16.71C23.5394 16.35 23.6734 16.034 23.9414 15.762C24.2094 15.486 24.5894 15.348 25.0814 15.348C25.5014 15.348 25.8914 15.44 26.2514 15.624C26.6114 15.804 26.9034 16.012 27.1274 16.248L27.8114 15.054C27.6234 14.858 27.3834 14.674 27.0914 14.502C26.8034 14.33 26.4834 14.19 26.1314 14.082C25.7834 13.974 25.4234 13.92 25.0514 13.92C24.4474 13.92 23.9174 14.052 23.4614 14.316C23.0054 14.58 22.6494 14.926 22.3934 15.354C22.1414 15.782 22.0154 16.244 22.0154 16.74C22.0154 17.196 22.1194 17.584 22.3274 17.904C22.5354 18.22 22.7994 18.486 23.1194 18.702C23.4434 18.914 23.7754 19.092 24.1154 19.236C24.5914 19.432 25.0094 19.618 25.3694 19.794C25.7294 19.966 26.0094 20.168 26.2094 20.4C26.4094 20.628 26.5094 20.926 26.5094 21.294C26.5094 21.77 26.3454 22.13 26.0174 22.374C25.6894 22.614 25.2834 22.734 24.7994 22.734C24.3434 22.734 23.9374 22.648 23.5814 22.476C23.2254 22.3 22.9214 22.1 22.6694 21.876C22.4174 21.652 22.2174 21.464 22.0694 21.312L21.2414 22.584C21.3454 22.704 21.4974 22.854 21.6974 23.034C21.8974 23.21 22.1434 23.388 22.4354 23.568C22.7314 23.744 23.0714 23.892 23.4554 24.012C23.8434 24.132 24.2774 24.192 24.7574 24.192Z" fill="#121212"/>
</svg>
