<svg width="40" height="40" viewBox="0 0 40 40" fill="none" xmlns="http://www.w3.org/2000/svg">
<g opacity="0.8">
<path d="M21.6667 26.6666V9.99998C21.6667 9.55795 21.4911 9.13403 21.1785 8.82147C20.8659 8.50891 20.442 8.33331 20 8.33331H6.66667C6.22464 8.33331 5.80072 8.50891 5.48816 8.82147C5.17559 9.13403 5 9.55795 5 9.99998V26.6666C5 27.1087 5.17559 27.5326 5.48816 27.8452C5.80072 28.1577 6.22464 28.3333 6.66667 28.3333H8.33333M21.6667 26.6666C21.6667 27.1087 21.4911 27.5326 21.1785 27.8452C20.8659 28.1577 20.442 28.3333 20 28.3333H15M21.6667 26.6666V13.3333C21.6667 12.8913 21.8423 12.4674 22.1548 12.1548C22.4674 11.8422 22.8913 11.6666 23.3333 11.6666H27.6433C28.0853 11.6667 28.5092 11.8424 28.8217 12.155L34.5117 17.845C34.8242 18.1575 34.9999 18.5813 35 19.0233V26.6666C35 27.1087 34.8244 27.5326 34.5118 27.8452C34.1993 28.1577 33.7754 28.3333 33.3333 28.3333H31.6667M21.6667 26.6666C21.6667 27.1087 21.8423 27.5326 22.1548 27.8452C22.4674 28.1577 22.8913 28.3333 23.3333 28.3333H25M8.33333 28.3333C8.33333 29.2174 8.68452 30.0652 9.30964 30.6903C9.93477 31.3155 10.7826 31.6666 11.6667 31.6666C12.5507 31.6666 13.3986 31.3155 14.0237 30.6903C14.6488 30.0652 15 29.2174 15 28.3333M8.33333 28.3333C8.33333 27.4493 8.68452 26.6014 9.30964 25.9763C9.93477 25.3512 10.7826 25 11.6667 25C12.5507 25 13.3986 25.3512 14.0237 25.9763C14.6488 26.6014 15 27.4493 15 28.3333M31.6667 28.3333C31.6667 29.2174 31.3155 30.0652 30.6904 30.6903C30.0652 31.3155 29.2174 31.6666 28.3333 31.6666C27.4493 31.6666 26.6014 31.3155 25.9763 30.6903C25.3512 30.0652 25 29.2174 25 28.3333M31.6667 28.3333C31.6667 27.4493 31.3155 26.6014 30.6904 25.9763C30.0652 25.3512 29.2174 25 28.3333 25C27.4493 25 26.6014 25.3512 25.9763 25.9763C25.3512 26.6014 25 27.4493 25 28.3333" stroke="#121212" stroke-linecap="round" stroke-linejoin="round"/>
</g>
</svg>
