<svg width="10" height="13" viewBox="0 0 10 13" fill="none" xmlns="http://www.w3.org/2000/svg">
<path fill-rule="evenodd" clip-rule="evenodd" d="M1.535 1.83503C2.45398 0.916055 3.70038 0.39978 5 0.39978C6.29963 0.39978 7.54603 0.916055 8.465 1.83503C9.38398 2.75401 9.90026 4.0004 9.90026 5.30003C9.90026 6.59966 9.38398 7.84606 8.465 8.76503L5 12.23L1.535 8.76503C1.07994 8.31002 0.718968 7.76982 0.472689 7.17529C0.226409 6.58077 0.0996504 5.94355 0.0996504 5.30003C0.0996504 4.65651 0.226409 4.01929 0.472689 3.42477C0.718968 2.83024 1.07994 2.29004 1.535 1.83503V1.83503ZM5 6.70003C5.37131 6.70003 5.7274 6.55253 5.98995 6.28998C6.25251 6.02743 6.40001 5.67133 6.40001 5.30003C6.40001 4.92873 6.25251 4.57263 5.98995 4.31008C5.7274 4.04753 5.37131 3.90003 5 3.90003C4.6287 3.90003 4.27261 4.04753 4.01006 4.31008C3.7475 4.57263 3.6 4.92873 3.6 5.30003C3.6 5.67133 3.7475 6.02743 4.01006 6.28998C4.27261 6.55253 4.6287 6.70003 5 6.70003Z" fill="white"/>
</svg>
